<svg width="231" height="189" viewBox="0 0 231 189" fill="none" xmlns="http://www.w3.org/2000/svg">
<g clip-path="url(#clip0_620_4755)">
<path d="M230.03 0H0V188.28H230.03V0Z" fill="#0B9C51"/>
<path d="M120.48 72.6C116.874 78.871 115.466 86.1673 116.48 93.33C116.1 93.69 115.71 94.0233 115.31 94.33C115.22 94.25 115.13 94.18 115.04 94.09C115.959 87.0681 114.554 79.9387 111.04 73.79C109.228 70.6198 106.899 67.7741 104.15 65.37C105.176 57.3247 109.171 49.9529 115.35 44.7C121.415 49.876 125.366 57.1008 126.45 65C124.094 67.223 122.082 69.7844 120.48 72.6Z" fill="white"/>
<path d="M139.21 84.59C135.158 91.6968 128.578 97.0166 120.78 99.49C119.528 99.8973 118.252 100.231 116.96 100.49C116.51 99.2506 116.136 97.9849 115.84 96.7C115.64 95.8 115.47 94.9 115.34 93.99C114.167 85.685 116.24 77.2472 121.129 70.432C126.018 63.6169 133.347 58.9492 141.59 57.4C143.184 61.8345 143.797 66.562 143.386 71.2563C142.975 75.9506 141.55 80.4998 139.21 84.59Z" fill="#F4F4F4"/>
<path d="M115.05 93.52C114.745 95.8836 114.185 98.2072 113.38 100.45C112.086 100.187 110.807 99.8527 109.55 99.45C105.371 98.1186 101.503 95.9584 98.178 93.0985C94.8528 90.2386 92.1384 86.7377 90.1968 82.8051C88.2552 78.8724 87.1263 74.5887 86.8777 70.2099C86.629 65.8312 87.2657 61.4472 88.7495 57.32C96.9154 58.8615 104.185 63.4624 109.073 70.1829C113.961 76.9034 116.098 85.2364 115.05 93.48V93.52Z" fill="#F4F4F4"/>
<path d="M139.51 143.54H90.51L82.62 98.66C82.08 95.58 84.68 92.79 88.1 92.79H141.94C145.35 92.79 147.94 95.58 147.42 98.66L139.51 143.54Z" fill="white"/>
<path d="M117.73 128.42L109.25 119.94V107.91H113.57V118.16L120.78 125.36L117.73 128.42Z" fill="#0B9C51"/>
<path d="M180.22 28.94V52.93L176.72 49.99V32.44H155.79L151.62 28.94H180.22Z" fill="white"/>
<path d="M183.72 25.44V52.93H176.72V32.44H151.62V25.44H183.72Z" fill="white"/>
<path d="M78.4303 28.94L74.2603 32.44H53.3203V50L49.8203 52.93V28.94H78.4303Z" fill="white"/>
<path d="M78.4303 25.44V32.44H53.3203V52.93H46.3203V25.44H78.4303Z" fill="white"/>
<path d="M78.4303 159.34H49.8203V135.36L53.3203 138.29V155.84H74.2503L78.4303 159.34Z" fill="white"/>
<path d="M78.4303 155.84V162.84H46.3203V135.36H53.3203V155.84H78.4303Z" fill="white"/>
<path d="M180.22 135.36V159.34H151.62L155.79 155.84H176.72V138.29L180.22 135.36Z" fill="white"/>
<path d="M183.72 135.36V162.84H151.62V155.84H176.72V135.36H183.72Z" fill="white"/>
</g>
<defs>
<clipPath id="clip0_620_4755">
<rect width="230.03" height="188.28" fill="white"/>
</clipPath>
</defs>
</svg>
